<svg width="720" height="378" xmlns="http://www.w3.org/2000/svg" xmlns:xlink="http://www.w3.org/1999/xlink" overflow="hidden"><defs><clipPath id="clip0"><rect x="0" y="0" width="720" height="378"/></clipPath><clipPath id="clip1"><rect x="376" y="305" width="27" height="28"/></clipPath><clipPath id="clip2"><rect x="376" y="305" width="27" height="28"/></clipPath><clipPath id="clip3"><rect x="376" y="305" width="27" height="28"/></clipPath><clipPath id="clip4"><rect x="401" y="305" width="27" height="28"/></clipPath><clipPath id="clip5"><rect x="401" y="305" width="27" height="28"/></clipPath><clipPath id="clip6"><rect x="401" y="305" width="27" height="28"/></clipPath><clipPath id="clip7"><rect x="376" y="332" width="27" height="27"/></clipPath><clipPath id="clip8"><rect x="376" y="332" width="27" height="27"/></clipPath><clipPath id="clip9"><rect x="376" y="332" width="27" height="27"/></clipPath><clipPath id="clip10"><rect x="401" y="332" width="27" height="27"/></clipPath><clipPath id="clip11"><rect x="401" y="332" width="27" height="27"/></clipPath><clipPath id="clip12"><rect x="401" y="332" width="27" height="27"/></clipPath><clipPath id="clip13"><rect x="375" y="208" width="27" height="27"/></clipPath><clipPath id="clip14"><rect x="375" y="208" width="27" height="27"/></clipPath><clipPath id="clip15"><rect x="375" y="208" width="27" height="27"/></clipPath><clipPath id="clip16"><rect x="401" y="208" width="27" height="27"/></clipPath><clipPath id="clip17"><rect x="401" y="208" width="27" height="27"/></clipPath><clipPath id="clip18"><rect x="401" y="208" width="27" height="27"/></clipPath><clipPath id="clip19"><rect x="375" y="234" width="27" height="27"/></clipPath><clipPath id="clip20"><rect x="375" y="234" width="27" height="27"/></clipPath><clipPath id="clip21"><rect x="375" y="234" width="27" height="27"/></clipPath><clipPath id="clip22"><rect x="401" y="234" width="27" height="27"/></clipPath><clipPath id="clip23"><rect x="401" y="234" width="27" height="27"/></clipPath><clipPath id="clip24"><rect x="401" y="234" width="27" height="27"/></clipPath><clipPath id="clip25"><rect x="93" y="59" width="81" height="81"/></clipPath><clipPath id="clip26"><rect x="93" y="59" width="81" height="81"/></clipPath><clipPath id="clip27"><rect x="93" y="59" width="81" height="81"/></clipPath></defs><g clip-path="url(#clip0)"><rect x="0" y="0" width="720" height="378" fill="#FFFFFF"/><rect x="24.5001" y="230.5" width="311" height="146" stroke="#FFC000" stroke-width="1.33333" stroke-miterlimit="8" fill="none"/><rect x="24.5001" y="230.5" width="311" height="20" stroke="#BC8C00" stroke-width="1.33333" stroke-miterlimit="8" fill="#FFC000"/><text fill="#FFFFFF" font-family="Calibri,Calibri_MSFontService,sans-serif" font-weight="400" font-size="13" transform="translate(137.058 244)">Models registry</text><rect x="34.5001" y="261.5" width="92" height="105" stroke="#A5A5A5" stroke-width="1.33333" stroke-miterlimit="8" stroke-dasharray="1.33333 1.33333" fill="#FFFFFF"/><rect x="34.5001" y="261.5" width="92" height="20" stroke="#787878" stroke-width="1.33333" stroke-miterlimit="8" fill="#A5A5A5"/><text fill="#FFFFFF" font-family="Calibri,Calibri_MSFontService,sans-serif" font-weight="400" font-size="11" transform="translate(48.8361 275)">Nf<tspan font-size="11" x="10.1667" y="0">-</tspan><tspan font-size="11" x="13.5" y="0">workflow 1</tspan></text><rect x="42.5001" y="290.5" width="76" height="19" stroke="#787878" stroke-width="1.33333" stroke-miterlimit="8" fill="#A5A5A5"/><text fill="#FFFFFF" font-family="Calibri,Calibri_MSFontService,sans-serif" font-weight="400" font-size="9" transform="translate(53.2528 303)">Preprocessing</text><rect x="42.5001" y="314.5" width="76" height="19" stroke="#787878" stroke-width="1.33333" stroke-miterlimit="8" fill="#A5A5A5"/><text fill="#FFFFFF" font-family="Calibri,Calibri_MSFontService,sans-serif" font-weight="400" font-size="9" transform="translate(74.2528 327)">QC</text><rect x="42.5001" y="338.5" width="76" height="19" stroke="#787878" stroke-width="1.33333" stroke-miterlimit="8" fill="#A5A5A5"/><text fill="#FFFFFF" font-family="Calibri,Calibri_MSFontService,sans-serif" font-weight="400" font-size="9" transform="translate(61.8361 351)">Inference</text><rect x="133.5" y="261.5" width="92" height="105" stroke="#70AD47" stroke-width="1.33333" stroke-miterlimit="8" stroke-dasharray="1.33333 1.33333" fill="#FFFFFF"/><rect x="133.5" y="261.5" width="92" height="20" stroke="#507E32" stroke-width="1.33333" stroke-miterlimit="8" fill="#70AD47"/><text fill="#FFFFFF" font-family="Calibri,Calibri_MSFontService,sans-serif" font-weight="400" font-size="11" transform="translate(148.058 275)">Nf<tspan font-size="11" x="10.1667" y="0">-</tspan><tspan font-size="11" x="13.5" y="0">workflow 2</tspan></text><rect x="141.5" y="290.5" width="76" height="19" stroke="#507E32" stroke-width="1.33333" stroke-miterlimit="8" fill="#70AD47"/><text fill="#FFFFFF" font-family="Calibri,Calibri_MSFontService,sans-serif" font-weight="400" font-size="9" transform="translate(152.474 303)">Preprocessing</text><rect x="141.5" y="314.5" width="76" height="19" stroke="#507E32" stroke-width="1.33333" stroke-miterlimit="8" fill="#70AD47"/><text fill="#FFFFFF" font-family="Calibri,Calibri_MSFontService,sans-serif" font-weight="400" font-size="9" transform="translate(173.474 327)">QC</text><rect x="141.5" y="338.5" width="76" height="19" stroke="#507E32" stroke-width="1.33333" stroke-miterlimit="8" fill="#70AD47"/><text fill="#FFFFFF" font-family="Calibri,Calibri_MSFontService,sans-serif" font-weight="400" font-size="9" transform="translate(161.058 351)">Inference</text><rect x="233.5" y="261.5" width="91" height="105" stroke="#ED7D31" stroke-width="1.33333" stroke-miterlimit="8" stroke-dasharray="1.33333 1.33333" fill="#FFFFFF"/><rect x="233.5" y="261.5" width="91" height="20" stroke="#AE5A21" stroke-width="1.33333" stroke-miterlimit="8" fill="#ED7D31"/><text fill="#FFFFFF" font-family="Calibri,Calibri_MSFontService,sans-serif" font-weight="400" font-size="11" transform="translate(247.112 275)">Nf<tspan font-size="11" x="10.1667" y="0">-</tspan><tspan font-size="11" x="13.5" y="0">workflow n</tspan></text><rect x="240.5" y="290.5" width="77" height="19" stroke="#AE5A21" stroke-width="1.33333" stroke-miterlimit="8" fill="#ED7D31"/><text fill="#FFFFFF" font-family="Calibri,Calibri_MSFontService,sans-serif" font-weight="400" font-size="9" transform="translate(251.696 303)">Preprocessing</text><rect x="240.5" y="314.5" width="77" height="19" stroke="#AE5A21" stroke-width="1.33333" stroke-miterlimit="8" fill="#ED7D31"/><text fill="#FFFFFF" font-family="Calibri,Calibri_MSFontService,sans-serif" font-weight="400" font-size="9" transform="translate(272.696 327)">QC</text><rect x="240.5" y="338.5" width="77" height="19" stroke="#AE5A21" stroke-width="1.33333" stroke-miterlimit="8" fill="#ED7D31"/><text fill="#FFFFFF" font-family="Calibri,Calibri_MSFontService,sans-serif" font-weight="400" font-size="9" transform="translate(260.279 351)">Inference</text><rect x="24.5001" y="193.5" width="311" height="21" stroke="#2F528F" stroke-width="1.33333" stroke-miterlimit="8" fill="#4472C4"/><text fill="#FFFFFF" font-family="Calibri,Calibri_MSFontService,sans-serif" font-weight="400" font-size="13" transform="translate(128.474 207)">Remote repository</text><path d="M176.833 215.5 176.833 222.646 176.167 222.646 176.167 215.5ZM180.5 221.312 176.5 229.312 172.5 221.312Z" fill="#4472C4"/><path d="M184.833 215.5 184.833 222.646 184.167 222.646 184.167 215.5ZM188.5 221.312 184.5 229.312 180.5 221.312Z" fill="#4472C4"/><path d="M191.833 215.5 191.833 222.646 191.167 222.646 191.167 215.5ZM195.5 221.312 191.5 229.312 187.5 221.312Z" fill="#4472C4"/><rect x="365.5" y="297.5" width="346" height="75" stroke="#2F528F" stroke-width="1.33333" stroke-miterlimit="8" stroke-dasharray="1.33333 1.33333" fill="none"/><g clip-path="url(#clip1)"><g clip-path="url(#clip2)"><g clip-path="url(#clip3)"><path d="M6.46875 23.0625 6.46875 3.9375 13.5 3.9375 13.5 9.84375 20.5312 9.84375 20.5312 23.0625 6.46875 23.0625ZM15.1875 4.64062 18.7031 8.15625 15.1875 8.15625 15.1875 4.64062ZM15.1875 2.25 4.78125 2.25 4.78125 24.75 22.2188 24.75 22.2188 8.4375 15.1875 2.25Z" transform="matrix(1 0 0 1.03704 376 305)"/><path d="M8.15625 12.6562 18.8438 12.6562 18.8438 13.7812 8.15625 13.7812Z" transform="matrix(1 0 0 1.03704 376 305)"/><path d="M8.15625 10.4062 11.8125 10.4062 11.8125 11.5312 8.15625 11.5312Z" transform="matrix(1 0 0 1.03704 376 305)"/><path d="M8.15625 14.9062 18.8438 14.9062 18.8438 16.0312 8.15625 16.0312Z" transform="matrix(1 0 0 1.03704 376 305)"/><path d="M8.15625 17.1562 18.8438 17.1562 18.8438 18.2812 8.15625 18.2812Z" transform="matrix(1 0 0 1.03704 376 305)"/><path d="M8.15625 19.4062 18.8438 19.4062 18.8438 20.5312 8.15625 20.5312Z" transform="matrix(1 0 0 1.03704 376 305)"/></g></g></g><g clip-path="url(#clip4)"><g clip-path="url(#clip5)"><g clip-path="url(#clip6)"><path d="M6.46875 23.0625 6.46875 3.9375 13.5 3.9375 13.5 9.84375 20.5312 9.84375 20.5312 23.0625 6.46875 23.0625ZM15.1875 4.64062 18.7031 8.15625 15.1875 8.15625 15.1875 4.64062ZM15.1875 2.25 4.78125 2.25 4.78125 24.75 22.2188 24.75 22.2188 8.4375 15.1875 2.25Z" transform="matrix(1 0 0 1.03704 401 305)"/><path d="M8.15625 12.6562 18.8438 12.6562 18.8438 13.7812 8.15625 13.7812Z" transform="matrix(1 0 0 1.03704 401 305)"/><path d="M8.15625 10.4062 11.8125 10.4062 11.8125 11.5312 8.15625 11.5312Z" transform="matrix(1 0 0 1.03704 401 305)"/><path d="M8.15625 14.9062 18.8438 14.9062 18.8438 16.0312 8.15625 16.0312Z" transform="matrix(1 0 0 1.03704 401 305)"/><path d="M8.15625 17.1562 18.8438 17.1562 18.8438 18.2812 8.15625 18.2812Z" transform="matrix(1 0 0 1.03704 401 305)"/><path d="M8.15625 19.4062 18.8438 19.4062 18.8438 20.5312 8.15625 20.5312Z" transform="matrix(1 0 0 1.03704 401 305)"/></g></g></g><g clip-path="url(#clip7)"><g clip-path="url(#clip8)"><g clip-path="url(#clip9)"><path d="M382.469 355.062 382.469 335.938 389.5 335.938 389.5 341.844 396.531 341.844 396.531 355.062 382.469 355.062ZM391.188 336.641 394.703 340.156 391.188 340.156 391.188 336.641ZM391.188 334.25 380.781 334.25 380.781 356.75 398.219 356.75 398.219 340.438 391.188 334.25Z"/><path d="M384.156 344.656 394.844 344.656 394.844 345.781 384.156 345.781Z"/><path d="M384.156 342.406 387.812 342.406 387.812 343.531 384.156 343.531Z"/><path d="M384.156 346.906 394.844 346.906 394.844 348.031 384.156 348.031Z"/><path d="M384.156 349.156 394.844 349.156 394.844 350.281 384.156 350.281Z"/><path d="M384.156 351.406 394.844 351.406 394.844 352.531 384.156 352.531Z"/></g></g></g><g clip-path="url(#clip10)"><g clip-path="url(#clip11)"><g clip-path="url(#clip12)"><path d="M407.469 355.062 407.469 335.938 414.5 335.938 414.5 341.844 421.531 341.844 421.531 355.062 407.469 355.062ZM416.188 336.641 419.703 340.156 416.188 340.156 416.188 336.641ZM416.188 334.25 405.781 334.25 405.781 356.75 423.219 356.75 423.219 340.438 416.188 334.25Z"/><path d="M409.156 344.656 419.844 344.656 419.844 345.781 409.156 345.781Z"/><path d="M409.156 342.406 412.812 342.406 412.812 343.531 409.156 343.531Z"/><path d="M409.156 346.906 419.844 346.906 419.844 348.031 409.156 348.031Z"/><path d="M409.156 349.156 419.844 349.156 419.844 350.281 409.156 350.281Z"/><path d="M409.156 351.406 419.844 351.406 419.844 352.531 409.156 352.531Z"/></g></g></g><rect x="467.5" y="318.5" width="104" height="31" stroke="#2F528F" stroke-width="1.33333" stroke-miterlimit="8" fill="#4472C4"/><text fill="#FFFFFF" font-family="Calibri,Calibri_MSFontService,sans-serif" font-weight="400" font-size="11" transform="translate(489.702 331)">Queue<tspan font-size="11" x="29.1667" y="0">-</tspan><tspan font-size="11" x="32.5" y="0">based </tspan><tspan font-size="11" x="-7.08667" y="13">event invocation</tspan></text><path d="M433.5 334.167 460.905 334.167 460.905 334.833 433.5 334.833ZM459.571 330.5 467.571 334.5 459.571 338.5Z" fill="#4472C4"/><path d="M571.503 335.167 591.414 335.365 591.408 336.032 571.497 335.833ZM590.118 331.685 598.078 335.765 590.038 339.685Z" fill="#4472C4"/><path d="M629.5 312.5 629.5 357.75" stroke="#4472C4" stroke-width="1.33333" stroke-miterlimit="8" fill="none" fill-rule="evenodd"/><path d="M629.5 357.5 674.75 357.5" stroke="#4472C4" stroke-width="1.33333" stroke-miterlimit="8" fill="none" fill-rule="evenodd"/><text font-family="Calibri,Calibri_MSFontService,sans-serif" font-weight="700" font-size="8" transform="matrix(6.12323e-17 1 -1 6.12323e-17 619.954 319)">Resources <tspan font-size="8" x="-5" y="10">consumption</tspan></text><path d="M0 0 15.8454 20.9732" stroke="#4472C4" stroke-miterlimit="8" fill="none" fill-rule="evenodd" transform="matrix(-1 0 0 1 646.345 336.5)"/><path d="M675.139 327.807 629.5 327.5" stroke="#FF0000" stroke-miterlimit="8" stroke-dasharray="3 1" fill="none" fill-rule="evenodd"/><text fill="#FF0000" font-family="Calibri,Calibri_MSFontService,sans-serif" font-weight="700" font-size="8" transform="translate(676.598 329)">limit</text><path d="M0 0 28.0819 0.000104987" stroke="#4472C4" stroke-miterlimit="8" fill="none" fill-rule="evenodd" transform="matrix(-1 0 0 1 674.582 336.5)"/><rect x="365.5" y="197.5" width="346" height="76" stroke="#2F528F" stroke-width="1.33333" stroke-miterlimit="8" stroke-dasharray="1.33333 1.33333" fill="none"/><g clip-path="url(#clip13)"><g clip-path="url(#clip14)"><g clip-path="url(#clip15)"><path d="M381.469 231.062 381.469 211.938 388.5 211.938 388.5 217.844 395.531 217.844 395.531 231.062 381.469 231.062ZM390.188 212.641 393.703 216.156 390.188 216.156 390.188 212.641ZM390.188 210.25 379.781 210.25 379.781 232.75 397.219 232.75 397.219 216.438 390.188 210.25Z"/><path d="M383.156 220.656 393.844 220.656 393.844 221.781 383.156 221.781Z"/><path d="M383.156 218.406 386.812 218.406 386.812 219.531 383.156 219.531Z"/><path d="M383.156 222.906 393.844 222.906 393.844 224.031 383.156 224.031Z"/><path d="M383.156 225.156 393.844 225.156 393.844 226.281 383.156 226.281Z"/><path d="M383.156 227.406 393.844 227.406 393.844 228.531 383.156 228.531Z"/></g></g></g><g clip-path="url(#clip16)"><g clip-path="url(#clip17)"><g clip-path="url(#clip18)"><path d="M407.469 231.062 407.469 211.938 414.5 211.938 414.5 217.844 421.531 217.844 421.531 231.062 407.469 231.062ZM416.188 212.641 419.703 216.156 416.188 216.156 416.188 212.641ZM416.188 210.25 405.781 210.25 405.781 232.75 423.219 232.75 423.219 216.438 416.188 210.25Z"/><path d="M409.156 220.656 419.844 220.656 419.844 221.781 409.156 221.781Z"/><path d="M409.156 218.406 412.812 218.406 412.812 219.531 409.156 219.531Z"/><path d="M409.156 222.906 419.844 222.906 419.844 224.031 409.156 224.031Z"/><path d="M409.156 225.156 419.844 225.156 419.844 226.281 409.156 226.281Z"/><path d="M409.156 227.406 419.844 227.406 419.844 228.531 409.156 228.531Z"/></g></g></g><g clip-path="url(#clip19)"><g clip-path="url(#clip20)"><g clip-path="url(#clip21)"><path d="M381.469 257.062 381.469 237.938 388.5 237.938 388.5 243.844 395.531 243.844 395.531 257.062 381.469 257.062ZM390.188 238.641 393.703 242.156 390.188 242.156 390.188 238.641ZM390.188 236.25 379.781 236.25 379.781 258.75 397.219 258.75 397.219 242.438 390.188 236.25Z"/><path d="M383.156 246.656 393.844 246.656 393.844 247.781 383.156 247.781Z"/><path d="M383.156 244.406 386.812 244.406 386.812 245.531 383.156 245.531Z"/><path d="M383.156 248.906 393.844 248.906 393.844 250.031 383.156 250.031Z"/><path d="M383.156 251.156 393.844 251.156 393.844 252.281 383.156 252.281Z"/><path d="M383.156 253.406 393.844 253.406 393.844 254.531 383.156 254.531Z"/></g></g></g><g clip-path="url(#clip22)"><g clip-path="url(#clip23)"><g clip-path="url(#clip24)"><path d="M407.469 257.062 407.469 237.938 414.5 237.938 414.5 243.844 421.531 243.844 421.531 257.062 407.469 257.062ZM416.188 238.641 419.703 242.156 416.188 242.156 416.188 238.641ZM416.188 236.25 405.781 236.25 405.781 258.75 423.219 258.75 423.219 242.438 416.188 236.25Z"/><path d="M409.156 246.656 419.844 246.656 419.844 247.781 409.156 247.781Z"/><path d="M409.156 244.406 412.812 244.406 412.812 245.531 409.156 245.531Z"/><path d="M409.156 248.906 419.844 248.906 419.844 250.031 409.156 250.031Z"/><path d="M409.156 251.156 419.844 251.156 419.844 252.281 409.156 252.281Z"/><path d="M409.156 253.406 419.844 253.406 419.844 254.531 409.156 254.531Z"/></g></g></g><rect x="468.5" y="219.5" width="103" height="31" stroke="#2F528F" stroke-width="1.33333" stroke-miterlimit="8" fill="#4472C4"/><text fill="#FFFFFF" font-family="Calibri,Calibri_MSFontService,sans-serif" font-weight="400" font-size="11" transform="translate(493.115 231)">Direct event<tspan font-size="11" x="3.58667" y="13">Invocation</tspan></text><path d="M572.501 235.167 591.245 235.217 591.243 235.884 572.499 235.833ZM589.921 231.547 597.91 235.568 589.9 239.547Z" fill="#4472C4"/><path d="M629.5 211.5 629.5 256.75" stroke="#4472C4" stroke-width="1.33333" stroke-miterlimit="8" fill="none" fill-rule="evenodd"/><path d="M629.5 256.5 674.75 256.5" stroke="#4472C4" stroke-width="1.33333" stroke-miterlimit="8" fill="none" fill-rule="evenodd"/><text font-family="Calibri,Calibri_MSFontService,sans-serif" font-weight="700" font-size="8" transform="matrix(6.12323e-17 1 -1 6.12323e-17 619.954 218)">Resources <tspan font-size="8" x="-5" y="10">consumption</tspan></text><path d="M0 0 36.446 42.5286" stroke="#4472C4" stroke-miterlimit="8" fill="none" fill-rule="evenodd" transform="matrix(-1 0 0 1 666.946 214.5)"/><path d="M675.139 226.807 629.5 226.5" stroke="#FF0000" stroke-miterlimit="8" stroke-dasharray="3 1" fill="none" fill-rule="evenodd"/><text fill="#FF0000" font-family="Calibri,Calibri_MSFontService,sans-serif" font-weight="700" font-size="8" transform="translate(676.599 228)">limit</text><path d="M433.5 235.167 460.905 235.167 460.905 235.833 433.5 235.833ZM459.571 231.5 467.571 235.5 459.571 239.5Z" fill="#4472C4"/><text font-family="Calibri,Calibri_MSFontService,sans-serif" font-weight="700" font-size="11" transform="translate(374.691 193)">Processing a number of samples in parallel using direct events invocation<tspan font-size="11" x="-0.00012207" y="100">Processing a number of samples using queued events invocation</tspan></text><g clip-path="url(#clip25)"><g clip-path="url(#clip26)"><g clip-path="url(#clip27)"><path d="M120.844 84.9875C120.844 89.1814 117.444 92.5813 113.25 92.5813 109.056 92.5813 105.656 89.1814 105.656 84.9875 105.656 80.7936 109.056 77.3938 113.25 77.3938 117.444 77.3938 120.844 80.7936 120.844 84.9875Z" fill="#4472C4"/><path d="M161.344 84.9875C161.344 89.1814 157.944 92.5813 153.75 92.5813 149.556 92.5813 146.156 89.1814 146.156 84.9875 146.156 80.7936 149.556 77.3938 153.75 77.3938 157.944 77.3938 161.344 80.7936 161.344 84.9875Z" fill="#4472C4"/><path d="M148.688 121.606 148.688 114.012C148.688 112.831 148.181 111.65 147.169 110.975 145.144 109.287 142.444 108.106 139.744 107.431 137.887 106.925 135.694 106.419 133.5 106.419 131.475 106.419 129.281 106.756 127.256 107.431 124.556 108.106 122.025 109.456 119.831 110.975 118.819 111.819 118.312 112.831 118.312 114.012L118.312 121.606 148.688 121.606Z" fill="#4472C4"/><path d="M141.094 96.8C141.094 100.994 137.694 104.394 133.5 104.394 129.306 104.394 125.906 100.994 125.906 96.8 125.906 92.6061 129.306 89.2063 133.5 89.2063 137.694 89.2063 141.094 92.6061 141.094 96.8Z" fill="#4472C4"/><path d="M167.419 99.1625C165.394 97.475 162.694 96.2937 159.994 95.6188 158.137 95.1125 155.944 94.6062 153.75 94.6062 151.725 94.6062 149.531 94.9437 147.506 95.6188 146.494 95.9563 145.481 96.2937 144.469 96.8L144.469 96.9688C144.469 99.8375 143.288 102.537 141.431 104.394 144.637 105.406 147.169 106.756 149.194 108.275 149.7 108.781 150.206 109.119 150.544 109.794L168.938 109.794 168.938 102.2C168.938 101.019 168.431 99.8375 167.419 99.1625Z" fill="#4472C4"/><path d="M117.806 108.275 117.806 108.275C120.169 106.588 122.869 105.238 125.569 104.394 123.713 102.369 122.531 99.8375 122.531 96.9688 122.531 96.8 122.531 96.8 122.531 96.6312 121.519 96.2937 120.506 95.7875 119.494 95.6188 117.637 95.1125 115.444 94.6062 113.25 94.6062 111.225 94.6062 109.031 94.9437 107.006 95.6188 104.306 96.4625 101.775 97.6438 99.5813 99.1625 98.5687 99.8375 98.0625 101.019 98.0625 102.2L98.0625 109.794 116.287 109.794C116.794 109.119 117.131 108.781 117.806 108.275Z" fill="#4472C4"/></g></g></g><path d="M339.5 66.5001 309.5 66.5001 309.5 69.5001 303.5 63.5001 309.5 57.5001 309.5 60.5001 339.5 60.5001Z" stroke="#2F528F" stroke-width="1.33333" stroke-miterlimit="8" fill="#4472C4" fill-rule="evenodd"/><path d="M301.5 51.5001 272.5 51.5001 272.5 54.5001 266.5 48.5001 272.5 42.5001 272.5 45.5001 301.5 45.5001Z" stroke="#2F528F" stroke-width="1.33333" stroke-miterlimit="8" fill="#4472C4" fill-rule="evenodd"/><path d="M601.5 36.2501 273 36.2501 273 39.5001 266.5 33.0001 273 26.5001 273 29.7501 601.5 29.7501Z" stroke="#2F528F" stroke-width="1.33333" stroke-miterlimit="8" fill="#4472C4" fill-rule="evenodd"/><path d="M223.5 160.5 567.5 160.5 567.5 157.5 573.5 163.5 567.5 169.5 567.5 166.5 223.5 166.5Z" stroke="#2F528F" stroke-width="1.33333" stroke-miterlimit="8" fill="#4472C4" fill-rule="evenodd"/><path d="M276.5 146.75 306 146.75 306 143.5 312.5 150 306 156.5 306 153.25 276.5 153.25Z" stroke="#2F528F" stroke-width="1.33333" stroke-miterlimit="8" fill="#4472C4" fill-rule="evenodd"/><path d="M223.5 133.5 267.5 133.5 267.5 130.5 273.5 136.5 267.5 142.5 267.5 139.5 223.5 139.5Z" stroke="#2F528F" stroke-width="1.33333" stroke-miterlimit="8" fill="#4472C4" fill-rule="evenodd"/><rect x="220.5" y="25.5001" width="44" height="146" stroke="#2F528F" stroke-width="1.33333" stroke-miterlimit="8" fill="#4472C4"/><text fill="#FFFFFF" font-family="Calibri,Calibri_MSFontService,sans-serif" font-weight="400" font-size="13" transform="matrix(6.12323e-17 1 -1 6.12323e-17 246.279 73)">Web <tspan font-size="13" x="29" y="1.77574e-15">app</tspan><tspan font-size="13" x="2" y="16">(Django)</tspan></text><rect x="275.5" y="25.5001" width="27" height="146" stroke="#2F528F" stroke-width="1.33333" stroke-miterlimit="8" fill="#4472C4"/><text fill="#FFFFFF" font-family="Calibri,Calibri_MSFontService,sans-serif" font-weight="400" font-size="13" transform="matrix(6.12323e-17 1 -1 6.12323e-17 284.402 60)">Broker<tspan font-size="13" x="39" y="2.38806e-15">(Redis)</tspan></text><rect x="313.5" y="25.5001" width="27" height="146" stroke="#2F528F" stroke-width="1.33333" stroke-miterlimit="8" fill="#4472C4"/><text fill="#FFFFFF" font-family="Calibri,Calibri_MSFontService,sans-serif" font-weight="400" font-size="13" transform="matrix(6.12323e-17 1 -1 6.12323e-17 322.356 57)">Queue<tspan font-size="13" x="39" y="2.38806e-15">(Celery)</tspan></text><rect x="574.5" y="25.5001" width="27" height="146" stroke="#2F528F" stroke-width="1.33333" stroke-miterlimit="8" fill="#4472C4"/><text fill="#FFFFFF" font-family="Calibri,Calibri_MSFontService,sans-serif" font-weight="400" font-size="13" transform="matrix(6.12323e-17 1 -1 6.12323e-17 583.596 36)">Database (PostgreSQL)</text><rect x="352.5" y="49.5001" width="63" height="42" stroke="#2F528F" stroke-width="1.33333" stroke-miterlimit="8" fill="#4472C4"/><text fill="#FFFFFF" font-family="Calibri,Calibri_MSFontService,sans-serif" font-weight="400" font-size="11" transform="translate(367.324 73)">Worker</text><rect x="425.5" y="49.5001" width="63" height="42" stroke="#BC8C00" stroke-width="1.33333" stroke-miterlimit="8" fill="#FFC000"/><text fill="#FFFFFF" font-family="Calibri,Calibri_MSFontService,sans-serif" font-weight="400" font-size="11" transform="translate(440.082 67)">Models<tspan font-size="11" x="-0.0866699" y="13">registry</tspan></text><rect x="495.5" y="49.5001" width="67" height="42" stroke="#2F528F" stroke-width="1.33333" stroke-miterlimit="8" fill="#4472C4"/><text fill="#FFFFFF" font-family="Calibri,Calibri_MSFontService,sans-serif" font-weight="400" font-size="11" transform="translate(506.313 73)">Prediction</text><path d="M565.5 95.5001C565.5 98.2615 565.127 100.5 564.667 100.5L457.332 100.5C456.872 100.5 456.499 102.739 456.499 105.5 456.499 102.739 456.126 100.5 455.666 100.5L349.333 100.5C348.873 100.5 348.5 98.2615 348.5 95.5001" stroke="#4472C4" stroke-miterlimit="8" fill="none" fill-rule="evenodd"/><text font-family="Calibri,Calibri_MSFontService,sans-serif" font-weight="700" font-size="11" transform="translate(393.579 125)">Dynamic number of queued, <tspan font-size="11" x="-22.6667" y="13">independent workers consuming users </tspan><tspan font-size="11" x="43.6667" y="26">requests</tspan></text><rect x="341.5" y="6.50005" width="231" height="16" stroke="#2F528F" stroke-width="1.33333" stroke-miterlimit="8" fill="#4472C4"/><text fill="#FFFFFF" font-family="Calibri,Calibri_MSFontService,sans-serif" font-weight="400" font-size="11" transform="translate(356.8 17)">Queue monitor/management system (Flower)</text><path d="M176.5 87.7501 206 87.7501 206 84.5001 212.5 91.0001 206 97.5001 206 94.2501 176.5 94.2501Z" stroke="#2F528F" stroke-width="1.33333" stroke-miterlimit="8" fill="#4472C4" fill-rule="evenodd"/><path d="M0 3 30 3 30 0 36 6 30 12 30 9 0 9Z" stroke="#2F528F" stroke-width="1.33333" stroke-miterlimit="8" fill="#4472C4" fill-rule="evenodd" transform="matrix(-1 0 0 1 212.5 99.5001)"/></g></svg>